<?xml version="1.0" encoding="UTF-8" standalone="no"?>
<svg xmlns="http://www.w3.org/2000/svg" stroke-linecap="square" version="1.1" stroke-miterlimit="10" xmlns:xlink="http://www.w3.org/1999/xlink" viewBox="0.0 0.0 232.0 272.0" fill="none">
 <clipPath id="p.0">
  <path d="m0 0h232v272h-232v-272z"/>
 </clipPath>
 <g clip-path="url(#p.0)">
  <path fill-opacity="0" d="m0 0h232v272h-232z" fill="#000"/>
  <path fill-opacity="0" d="m8 104v-96.002h56" fill="#000"/>
  <path stroke-linejoin="round" d="m8 104v-96.002h56" stroke="#000" stroke-linecap="butt" stroke-width="16"/>
  <path fill-opacity="0" d="m80 0v112" fill="#000"/>
  <path stroke-linejoin="round" d="m80 0v112" stroke="#000" stroke-linecap="butt" stroke-width="16"/>
  <path fill-opacity="0" d="m104 104v-55.997h47.998v55.997z" fill="#000"/>
  <path stroke-linejoin="round" d="m104 104v-55.997h47.998v55.997z" stroke="#000" stroke-linecap="butt" stroke-width="16"/>
  <path fill-opacity="0" d="m176 40v64l24-24 24 24v-64" fill="#000"/>
  <path stroke-linejoin="round" d="m176 40v64l24-24 24 24v-64" stroke="#000" stroke-linecap="butt" stroke-width="16"/>
  <path fill-opacity="0" d="m136 128h-56v96l48-0.0026245v-56h-24" fill="#000"/>
  <path stroke-linejoin="round" d="m136 128h-56v96l48-0.0026245v-56h-24" stroke="#000" stroke-linecap="butt" stroke-width="16"/>
  <path fill-opacity="0" d="m8 112v-64.002h40" fill="#000"/>
  <path stroke-linejoin="round" d="m8 112v-64.002h40" stroke="#000" stroke-linecap="butt" stroke-width="16"/>
  <path fill-opacity="0" d="m152 160v72" fill="#000"/>
  <path stroke-linejoin="round" d="m152 160v72" stroke="#000" stroke-linecap="butt" stroke-width="16"/>
  <path d="m152 136v-16" fill="#fff"/>
  <path stroke-linejoin="round" d="m152 136v-16" stroke="#000" stroke-linecap="butt" stroke-width="16"/>
  <path fill-opacity="0" d="m0 264h224v-96l-48 0.0026245v56h24" fill="#000"/>
  <path stroke-linejoin="round" d="m0 264h224v-96l-48 0.0026245v56h24" stroke="#000" stroke-linecap="butt" stroke-width="16"/>
 </g>
</svg>
