<svg xmlns="http://www.w3.org/2000/svg" viewBox="0 0 576 152" style="fill:none;stroke-linecap:square;stroke-miterlimit:10;stroke:none;version:1.1"><style>.a{fill:none;}.b{fill-rule:evenodd;stroke-linecap:butt;stroke-linejoin:round;stroke-width:16;stroke:#000;}.c{fill-rule:evenodd;stroke-linejoin:round;stroke-width:8;stroke:#fff;}</style><clipPath><path d="m0 0l576 0 0 152 -576 0 0-152z" clip-rule="nonzero"/></clipPath><g clip-path="url(#p.0)"><path d="m0 0l576 0 0 152 -576 0z" class="a"/><path d="m416 72l0-64 152 0 0 64z" style="fill-rule:evenodd;fill:#c32a22"/><path d="m416 72l0-64 152 0 0 64z" style="fill-rule:evenodd;stroke-linecap:butt;stroke-linejoin:round;stroke-width:16;stroke:#c32a22"/><path d="m8 104l0-96 56 0" class="a"/><path d="m8 104l0-96 56 0" class="b"/><path d="m80 0l0 112" class="a"/><path d="m80 0l0 112" class="b"/><path d="m104 104l0-56 48 0 0 56z" class="a"/><path d="m104 104l0-56 48 0 0 56z" class="b"/><path d="m176 40l0 64 24-24 24 24 0-64" class="a"/><path d="m176 40l0 64 24-24 24 24 0-64" class="b"/><path d="m304 8l-56 0 0 96 48 0 0-56 -24 0" class="a"/><path d="m304 8l-56 0 0 96 48 0 0-56 -24 0" class="b"/><path d="m8 112l0-64 40 0" class="a"/><path d="m8 112l0-64 40 0" class="b"/><path d="m320 40l0 72" class="a"/><path d="m320 40l0 72" class="b"/><path d="m320 16l0-16" style="fill-rule:evenodd;fill:#fff"/><path d="m320 16l0-16" class="b"/><path d="m0 144l392 0 0-96 -48 0 0 56 24 0" class="a"/><path d="m0 144l392 0 0-96 -48 0 0 56 24 0" class="b"/><path d="m424 16l0 48 24 0 0-32 -24 0" class="a"/><path d="m424 16l0 48 24 0 0-32 -24 0" class="c"/><path d="m488 64l-24 0 0-32 24 0 0 16 -8 0" class="a"/><path d="m488 64l-24 0 0-32 24 0 0 16 -8 0" class="c"/><path d="m512 16l0 48 8 0" class="a"/><path d="m512 16l0 48 8 0" class="c"/><path d="m520 32l-16 0" class="a"/><path d="m520 32l-16 0" class="c"/><path d="m536 32l24 0 0 32 -24 0 0-16 8 0" class="a"/><path d="m536 32l24 0 0 32 -24 0 0-16 8 0" class="c"/></g></svg>