<?xml version="1.0" encoding="UTF-8" standalone="no"?>
<svg xmlns="http://www.w3.org/2000/svg" stroke-linecap="square" version="1.1" stroke-miterlimit="10" xmlns:xlink="http://www.w3.org/1999/xlink" viewBox="0.0 0.0 407.8083989501312 143.61679790026247" fill="none">
 <clipPath id="p.0">
  <path d="m0 0h407.81v143.62h-407.81v-143.62z"/>
 </clipPath>
 <g clip-path="url(#p.0)">
  <path fill-opacity="0" d="m0 0h407.81v143.62h-407.81z" fill="#000"/>
  <path fill-opacity="0" d="m8 112v-104h56" fill="#000"/>
  <path stroke-linejoin="round" d="m8 112v-104h56" stroke="#fff" stroke-linecap="butt" stroke-width="16"/>
  <path fill-opacity="0" d="m80 0v112" fill="#000"/>
  <path stroke-linejoin="round" d="m80 0v112" stroke="#fff" stroke-linecap="butt" stroke-width="16"/>
  <path fill-opacity="0" d="m104 104v-56.002h56v56.002z" fill="#000"/>
  <path stroke-linejoin="round" d="m104 104v-56.002h56v56.002z" stroke="#fff" stroke-linecap="butt" stroke-width="16"/>
  <path fill-opacity="0" d="m184 40v64l24-24 24 24v-64" fill="#000"/>
  <path stroke-linejoin="round" d="m184 40v64l24-24 24 24v-64" stroke="#fff" stroke-linecap="butt" stroke-width="16"/>
  <path fill-opacity="0" d="m312 16h-56v88.003l48-0.0026245v-56h-27.43" fill="#000"/>
  <path stroke-linejoin="round" d="m312 16h-56v88.003l48-0.0026245v-56h-27.43" stroke="#fff" stroke-linecap="butt" stroke-width="16"/>
  <path fill-opacity="0" d="m8 112v-64.002h48" fill="#000"/>
  <path stroke-linejoin="round" d="m8 112v-64.002h48" stroke="#fff" stroke-linecap="butt" stroke-width="16"/>
  <path fill-opacity="0" d="m328 40v72" fill="#000"/>
  <path stroke-linejoin="round" d="m328 40v72" stroke="#fff" stroke-linecap="butt" stroke-width="16"/>
  <path d="m328 24v-16" fill="#fff"/>
  <path stroke-linejoin="round" d="m328 24v-16" stroke="#fff" stroke-linecap="butt" stroke-width="16"/>
  <path fill-opacity="0" d="m0 136l400 0.0026245v-88.003l-48 0.0026245v56h27.43" fill="#000"/>
  <path stroke-linejoin="round" d="m0 136l400 0.0026245v-88.003l-48 0.0026245v56h27.43" stroke="#fff" stroke-linecap="butt" stroke-width="16"/>
 </g>
</svg>
