<?xml version="1.0" standalone="no"?>
<!DOCTYPE svg PUBLIC "-//W3C//DTD SVG 20010904//EN"
 "http://www.w3.org/TR/2001/REC-SVG-20010904/DTD/svg10.dtd">
<svg version="1.0" xmlns="http://www.w3.org/2000/svg"
 width="1088.000000pt" height="1088.000000pt" viewBox="0 0 1088.000000 1088.000000"
 preserveAspectRatio="xMidYMid meet">
<metadata>
Created by potrace 1.11, written by Peter Selinger 2001-2013
</metadata>
<g transform="translate(0.000000,1088.000000) scale(0.100000,-0.100000)"
fill="#000000" stroke="none">
<path d="M1035 10867 c-39 -10 -145 -72 -145 -86 0 -3 -11 -18 -25 -33 -13
-14 -33 -54 -45 -87 -20 -60 -20 -73 -20 -2160 0 -2090 0 -2099 20 -2104 11
-3 20 -1 20 4 0 6 6 7 17 0 10 -5 26 -5 40 0 14 5 23 5 23 -1 0 -6 9 -6 23 -1
13 5 30 5 37 1 8 -5 22 -4 31 1 11 6 20 5 24 -1 4 -6 15 -6 30 0 14 5 25 6 25
2 0 -8 52 -8 66 1 6 3 16 2 24 -3 9 -5 19 -5 26 1 8 6 14 7 18 0 4 -6 18 -6
36 -1 17 5 32 5 35 0 3 -5 16 -5 30 0 16 6 25 6 25 -1 0 -6 7 -6 20 1 12 6 20
7 20 1 0 -11 38 -3 46 10 9 15 10 90 2 95 -5 3 -5 10 -2 16 10 16 11 59 2 86
-4 12 -3 22 2 22 6 0 6 9 0 25 -5 14 -6 25 -2 25 4 0 7 440 6 977 0 643 3 980
9 985 6 3 21 2 33 -2 14 -6 26 -5 29 0 3 5 15 6 29 0 12 -4 29 -5 36 0 7 4 19
6 25 3 20 -7 175 -9 175 -1 0 4 14 3 30 -2 17 -5 30 -5 30 0 0 5 12 5 28 1 28
-7 75 -6 99 3 7 3 13 1 13 -4 0 -5 13 -5 30 0 16 5 30 6 30 2 0 -4 20 -7 45
-7 25 0 45 3 45 7 0 4 14 3 30 -2 17 -5 30 -6 30 -2 0 8 94 7 115 -2 8 -3 17
-1 20 4 3 6 15 6 30 0 15 -6 27 -6 30 0 3 6 15 6 30 0 15 -6 27 -6 30 0 3 6
15 6 30 0 15 -6 27 -6 30 0 3 6 15 6 30 0 15 -6 27 -6 30 0 3 6 15 6 30 0 15
-6 27 -6 30 0 3 5 15 6 27 1 12 -4 32 -6 45 -3 25 5 25 5 22 122 -1 19 -1 42
0 50 3 77 1 212 -3 219 -4 5 -2 12 3 15 4 3 5 24 1 46 -4 21 -5 42 -2 45 8 7
5 123 -3 136 -4 6 -13 8 -21 5 -8 -3 -14 0 -14 6 0 7 -4 7 -13 0 -8 -7 -18 -7
-27 -2 -8 5 -21 5 -31 -1 -11 -5 -20 -5 -24 0 -3 6 -17 6 -35 1 -18 -5 -30 -5
-30 0 0 6 -10 6 -25 0 -15 -6 -25 -6 -25 0 0 5 -12 5 -30 0 -16 -5 -30 -5 -30
-1 0 7 -86 5 -107 -4 -7 -2 -13 -1 -13 3 0 8 -68 8 -76 -1 -4 -4 -15 -2 -25 4
-13 6 -19 6 -19 0 0 -7 -8 -7 -22 -2 -13 5 -32 5 -43 1 -11 -4 -25 -3 -32 2
-7 5 -14 5 -18 -2 -4 -7 -12 -7 -26 0 -12 7 -19 7 -19 1 0 -7 -8 -7 -22 -2
-13 5 -33 5 -46 0 -14 -5 -31 -5 -41 0 -9 5 -23 6 -30 1 -8 -4 -27 -4 -42 0
-17 5 -29 5 -29 0 0 -6 -9 -6 -22 -1 -13 5 -33 5 -45 0 -14 -5 -23 -5 -23 1 0
6 -9 6 -25 0 -14 -5 -27 -5 -30 0 -3 5 -18 5 -33 1 -15 -5 -37 -5 -49 0 -13 5
-25 4 -28 -1 -4 -7 -13 -6 -25 0 -13 7 -21 7 -25 0 -5 -8 -11 -7 -21 1 -8 6
-14 8 -14 4 0 -4 -7 -2 -15 5 -10 8 -12 17 -6 29 6 10 6 23 0 33 -6 11 -6 19
1 23 7 4 7 12 0 25 -6 10 -7 21 -2 24 8 5 7 80 -2 103 -3 7 -2 13 2 13 8 0 7
108 -1 117 -3 3 -2 16 3 29 6 16 6 24 -1 24 -6 0 -7 5 -3 11 9 15 8 114 -1
128 -3 6 -3 11 2 11 4 0 8 23 8 50 0 28 -4 50 -8 50 -4 0 -4 8 1 18 5 9 6 26
2 37 -4 11 -3 30 1 43 5 14 5 31 0 40 -6 11 -6 24 0 34 6 11 6 19 -1 23 -7 4
-7 12 0 25 7 13 7 21 0 25 -8 5 -8 11 0 20 13 15 50 27 50 15 0 -5 14 -5 30 0
18 5 30 5 30 0 0 -6 10 -6 25 0 16 6 25 6 25 -1 0 -6 7 -6 19 1 14 7 22 7 26
0 4 -7 11 -7 18 -2 7 5 21 6 32 2 11 -4 30 -4 43 1 14 5 22 5 22 -2 0 -6 7 -6
19 1 14 7 22 7 26 0 4 -7 11 -7 18 -2 7 5 21 6 32 2 11 -4 30 -3 43 1 14 5 31
5 40 0 11 -6 24 -6 34 0 10 6 19 6 23 0 4 -7 15 -7 30 -1 14 5 25 6 25 1 0 -5
16 -5 35 -1 19 4 35 4 35 -1 0 -5 11 -4 25 1 15 6 25 6 25 0 0 -5 12 -5 30 0
17 5 30 5 30 0 0 -5 13 -5 30 0 17 5 30 5 30 0 0 -4 16 -4 35 0 19 4 35 4 35
-1 0 -5 11 -4 25 1 15 6 25 6 25 0 0 -5 12 -5 30 0 17 5 30 5 30 0 0 -5 13 -5
30 0 17 5 30 5 30 0 0 -4 16 -4 35 0 19 4 35 4 35 -1 0 -5 11 -4 25 1 15 6 25
6 25 0 0 -5 12 -5 30 0 17 5 30 5 30 0 0 -5 13 -5 30 0 17 5 30 5 30 0 0 -4
16 -4 35 0 19 4 35 4 35 -1 0 -5 11 -4 25 1 15 6 25 6 25 0 0 -5 12 -5 30 0
17 5 30 5 30 0 0 -5 13 -5 30 0 17 5 30 5 30 0 0 -5 13 -5 30 0 17 5 32 5 35
0 3 -5 16 -5 30 0 16 6 25 6 25 -1 0 -6 6 -6 18 0 11 6 24 6 35 0 11 -6 24 -6
36 1 14 7 22 7 26 0 4 -7 11 -7 18 -2 7 5 21 6 32 2 11 -4 28 -5 38 -2 20 5
44 42 28 42 -7 0 -7 9 -1 25 6 16 6 25 -1 25 -6 0 -6 6 0 18 6 11 6 24 0 35
-7 11 -6 24 1 37 8 14 8 20 0 20 -8 0 -8 6 0 20 8 14 8 20 0 20 -8 0 -8 6 0
20 8 14 8 20 0 20 -6 0 -8 5 -5 11 10 15 12 80 3 86 -5 2 -5 9 -2 15 9 14 9
103 0 117 -4 6 -3 11 3 11 7 0 7 8 2 23 -5 13 -5 30 -1 37 5 8 5 21 0 31 -5 9
-6 19 -3 23 11 11 -2278 5 -2322 -7z"/>
<path d="M3677 10868 c-2 -7 -1 -27 3 -43 4 -17 4 -39 0 -50 -4 -11 -4 -27 1
-36 4 -8 4 -21 -1 -29 -5 -8 -5 -21 0 -30 5 -9 5 -22 0 -30 -5 -8 -6 -18 -3
-24 3 -5 5 -32 4 -60 -1 -28 -1 -60 -1 -71 1 -11 1 -27 1 -35 -3 -83 -1 -141
4 -150 3 -5 2 -10 -4 -10 -6 0 -6 -11 -1 -30 5 -17 5 -32 0 -35 -5 -3 -6 -15
0 -29 4 -12 4 -29 0 -36 -5 -8 -6 -18 -3 -24 3 -5 5 -32 4 -60 -1 -28 -1 -60
-1 -71 1 -11 1 -26 1 -32 -1 -29 -2 -100 -2 -133 1 -34 1 -54 1 -85 0 -8 0
-22 0 -30 0 -8 0 -22 0 -30 0 -8 0 -22 0 -30 0 -8 0 -21 1 -27 1 -22 0 -122
-1 -143 -1 -11 -1 -26 -1 -32 1 -7 1 -20 1 -28 0 -8 0 -22 0 -30 0 -8 0 -22 0
-30 0 -28 0 -50 0 -100 -1 -27 0 -59 0 -70 1 -11 1 -27 1 -35 -3 -83 -1 -141
4 -150 3 -5 2 -10 -4 -10 -6 0 -6 -11 -1 -30 5 -17 5 -32 0 -35 -5 -3 -6 -15
0 -29 4 -12 4 -29 0 -36 -5 -8 -6 -18 -3 -24 3 -5 5 -32 4 -60 -1 -28 -1 -60
-1 -71 1 -11 1 -27 1 -35 -3 -59 -1 -133 3 -137 3 -3 1 -15 -4 -27 -4 -13 -4
-29 0 -36 5 -8 5 -21 0 -30 -5 -9 -5 -22 0 -30 5 -8 5 -21 0 -30 -5 -9 -5 -22
-1 -28 4 -7 5 -35 1 -62 -4 -27 -3 -55 1 -62 4 -6 4 -19 -1 -28 -5 -9 -5 -22
0 -29 4 -8 4 -27 0 -42 -5 -16 -5 -31 0 -34 5 -3 6 -16 1 -28 -4 -12 -5 -33
-1 -47 3 -14 3 -42 0 -62 -4 -20 -4 -42 1 -49 4 -7 4 -20 -1 -29 -5 -9 -5 -22
0 -29 4 -8 4 -27 0 -42 -5 -16 -5 -31 0 -34 5 -3 6 -16 1 -28 -4 -12 -5 -33
-1 -47 3 -14 3 -42 0 -62 -4 -20 -4 -42 1 -49 4 -7 4 -20 -1 -29 -5 -9 -5 -22
0 -29 4 -8 4 -27 0 -42 -5 -16 -5 -31 0 -34 5 -3 6 -16 1 -28 -4 -12 -5 -33
-1 -47 3 -14 3 -42 0 -62 -4 -20 -4 -42 1 -49 4 -7 4 -20 -1 -29 -5 -9 -5 -22
0 -29 4 -8 4 -27 0 -42 -5 -16 -5 -31 0 -34 6 -3 5 -16 0 -29 -5 -13 -6 -26
-3 -29 3 -3 5 -30 4 -59 -1 -29 -1 -62 -1 -73 1 -11 1 -27 1 -35 -3 -83 -1
-141 4 -150 3 -5 2 -10 -4 -10 -6 0 -6 -11 -1 -30 5 -17 5 -32 0 -35 -5 -3 -6
-15 0 -29 4 -12 4 -29 0 -36 -5 -8 -6 -18 -3 -23 6 -11 10 -117 3 -117 -4 0
-4 -24 -1 -99 1 -7 7 -11 16 -7 8 3 15 1 15 -4 0 -5 12 -5 29 0 17 5 33 4 39
-2 6 -6 12 -6 16 1 5 8 13 8 27 1 13 -8 19 -7 19 0 0 7 6 8 18 1 10 -5 24 -6
32 -1 7 4 24 4 36 0 14 -6 26 -5 29 1 4 5 11 6 17 3 16 -10 67 -11 61 -2 -2 5
7 4 21 -2 16 -6 26 -6 26 0 0 6 9 6 25 0 14 -5 27 -5 30 0 3 5 18 5 35 0 18
-5 30 -5 30 0 0 5 10 6 23 2 19 -6 39 -7 83 -3 15 1 24 45 13 62 -4 7 -4 20 1
29 5 9 4 23 -1 32 -6 10 -6 19 0 23 7 4 7 15 1 30 -6 15 -6 25 0 25 5 0 5 12
0 28 -4 16 -4 35 1 43 4 8 4 21 -1 28 -4 8 -4 27 0 42 5 16 5 31 0 34 -5 3 -5
16 0 30 6 16 6 25 0 25 -6 0 -6 9 -1 23 5 12 5 32 0 45 -5 12 -5 22 1 22 5 0
5 12 0 29 -4 15 -4 34 0 42 5 7 4 21 -1 31 -6 12 -6 25 1 38 8 14 8 20 0 20
-8 0 -8 6 0 20 8 14 8 20 0 20 -8 0 -8 6 0 20 8 14 8 20 0 20 -7 0 -7 7 1 23
7 12 12 22 11 22 0 0 -5 12 -11 28 -6 15 -7 27 -1 27 5 0 5 12 0 30 -5 19 -5
30 1 30 6 0 6 6 0 18 -6 11 -6 24 0 35 7 11 7 17 0 17 -6 0 -6 11 -1 30 5 19
5 30 -1 30 -6 0 -6 6 0 18 6 11 6 24 0 35 -7 11 -6 24 1 37 8 14 8 20 0 20 -8
0 -8 6 0 20 8 14 8 20 0 20 -8 0 -8 6 0 20 8 14 8 20 0 20 -8 0 -8 6 0 20 8
14 8 20 0 20 -8 0 -8 6 0 20 8 14 8 20 0 20 -8 0 -8 6 0 20 8 14 8 20 0 20 -8
0 -8 6 0 20 8 14 8 20 0 20 -7 0 -8 6 -1 18 11 21 11 30 0 60 -5 13 -5 22 1
22 5 0 5 12 0 30 -5 19 -5 30 1 30 6 0 6 6 0 18 -6 11 -6 24 0 35 7 11 7 17 0
17 -6 0 -6 11 -1 30 5 19 5 30 -1 30 -6 0 -6 6 0 18 6 11 6 24 0 35 -7 11 -6
24 1 37 8 14 8 20 0 20 -8 0 -8 6 0 20 8 14 8 20 0 20 -8 0 -8 6 0 20 8 14 8
20 0 20 -6 0 -8 5 -5 11 10 15 12 80 3 85 -4 3 -3 16 2 29 6 16 6 25 0 25 -6
0 -6 9 -1 23 5 12 5 32 0 45 -5 12 -5 22 1 22 5 0 5 12 0 28 -4 16 -4 35 1 43
4 8 4 21 -1 28 -4 8 -4 27 0 42 5 16 5 31 0 34 -5 3 -5 16 0 30 6 16 6 25 0
25 -6 0 -6 9 -1 23 5 12 5 32 0 45 -5 12 -5 22 1 22 5 0 5 12 0 29 -4 15 -4
34 0 42 5 7 4 21 -1 30 -6 11 -5 20 1 24 7 4 7 12 0 25 -6 11 -6 21 -1 25 6 3
6 17 1 35 -5 17 -5 30 0 30 5 0 5 13 0 28 -4 16 -4 36 2 45 6 11 5 17 -1 17
-6 0 -6 11 -1 30 5 17 5 30 2 30 -9 0 -7 64 3 79 3 6 1 11 -5 11 -8 0 -8 6 0
20 8 14 8 20 0 20 -8 0 -8 6 0 20 8 14 8 20 0 20 -7 0 -8 6 -1 18 13 25 13 25
2 55 -6 15 -7 27 -1 27 5 0 5 12 0 30 -5 19 -5 30 1 30 7 0 7 6 0 17 -6 11 -6
24 0 35 6 12 6 18 0 18 -6 0 -6 11 -1 30 5 19 5 30 -1 30 -6 0 -6 6 0 18 6 11
6 24 0 35 -7 11 -6 24 1 37 8 14 8 20 0 20 -8 0 -8 6 0 20 8 14 8 20 0 20 -8
0 -8 6 0 20 8 14 8 20 0 20 -7 0 -7 7 1 23 7 12 11 24 10 27 -2 3 -7 13 -12
22 -5 10 -5 19 0 23 6 3 6 17 1 35 -5 17 -5 30 0 30 5 0 5 13 0 28 -4 16 -4
36 2 45 6 11 5 17 -1 17 -6 0 -6 11 -1 30 5 17 5 30 1 30 -4 0 -5 23 -1 50 4
28 3 53 -1 56 -5 3 -4 16 1 29 6 16 6 25 0 25 -6 0 -6 9 -1 23 5 12 5 32 0 45
-5 12 -5 22 1 22 5 0 5 12 0 28 -4 16 -4 35 1 43 4 8 4 21 -1 28 -4 8 -4 27 0
42 5 16 5 31 0 34 -5 3 -5 16 0 30 6 16 6 25 0 25 -6 0 -6 9 -1 23 5 12 5 32
0 45 -5 13 -5 22 1 22 5 0 5 12 0 29 -4 15 -4 34 0 42 5 7 4 21 -1 31 -9 17
-31 18 -324 18 -242 0 -314 -3 -318 -12z"/>
<path d="M5000 9280 c0 -3 -26 -5 -58 -6 -105 -1 -213 -70 -265 -169 -11 -22
-22 -44 -23 -50 -15 -68 -21 -151 -12 -160 3 -3 2 -22 -2 -41 -4 -18 -4 -34 0
-34 5 0 5 -13 0 -30 -5 -17 -5 -30 0 -30 5 0 5 -13 0 -30 -5 -16 -5 -30 -1
-30 4 0 4 -25 1 -55 -3 -30 -3 -60 1 -66 3 -6 3 -26 -1 -45 -4 -19 -4 -34 0
-34 5 0 5 -13 0 -30 -5 -17 -5 -30 0 -30 5 0 5 -13 0 -30 -5 -16 -5 -30 -1
-30 4 0 4 -27 1 -60 -3 -33 -3 -60 1 -60 4 0 4 -13 -1 -30 -5 -16 -6 -30 -2
-30 4 0 7 -18 7 -40 0 -22 -2 -40 -5 -40 -3 0 -4 -17 -3 -37 7 -94 8 -123 2
-123 -4 0 -3 -16 1 -35 4 -19 5 -35 1 -35 -3 0 -6 -27 -6 -60 0 -33 3 -60 7
-60 4 0 4 -11 -1 -23 -5 -13 -6 -30 -1 -37 4 -7 6 -18 4 -24 -7 -17 -10 -106
-4 -106 3 0 5 -22 5 -50 0 -27 -3 -50 -6 -50 -4 0 -3 -16 1 -35 4 -19 5 -35 1
-35 -3 0 -6 -38 -6 -85 0 -47 2 -85 5 -85 3 0 5 -18 5 -40 0 -22 -2 -40 -5
-40 -3 0 -4 -17 -2 -37 4 -47 2 -115 -3 -123 -2 -3 0 -12 4 -19 5 -7 5 -28 1
-47 -4 -19 -4 -34 0 -34 5 0 5 -13 0 -30 -5 -17 -5 -30 0 -30 5 0 5 -13 0 -30
-5 -16 -6 -30 -2 -30 4 0 7 -26 6 -58 -1 -92 34 -173 102 -237 37 -35 122 -75
169 -79 20 -2 39 -6 42 -9 3 -3 16 -2 29 3 15 6 24 6 24 0 0 -6 9 -6 25 0 13
5 26 6 29 2 5 -9 70 -7 85 3 6 3 11 1 11 -5 0 -8 6 -8 20 0 14 8 20 8 20 0 0
-8 6 -8 20 0 14 8 20 8 20 0 0 -8 6 -8 20 0 14 8 20 8 20 0 0 -8 6 -8 20 0 14
8 20 8 20 0 0 -8 6 -8 20 0 14 8 20 8 20 0 0 -8 6 -8 20 0 14 8 20 8 20 0 0
-8 6 -8 20 0 14 8 20 8 20 0 0 -8 6 -8 20 0 14 8 20 8 20 0 0 -8 6 -8 20 0 14
8 20 8 20 0 0 -8 6 -8 20 0 14 8 20 8 20 0 0 -8 6 -8 20 0 14 8 20 8 20 0 0
-8 6 -8 20 0 14 8 20 8 20 0 0 -8 6 -8 20 0 14 8 20 8 20 0 0 -8 6 -8 20 0 14
8 20 8 20 0 0 -8 6 -8 20 0 13 7 26 7 38 1 11 -6 24 -6 35 0 9 6 17 6 17 2 0
-4 27 -8 60 -8 33 0 60 4 60 8 0 4 9 3 19 -3 13 -7 22 -7 26 0 4 6 13 7 23 1
11 -6 24 -6 35 0 9 6 17 6 17 2 0 -4 52 -8 115 -8 63 0 115 3 115 7 0 4 11 3
25 -2 15 -6 26 -6 30 1 4 5 11 6 17 3 15 -9 168 -11 168 -2 0 4 11 3 25 -2 15
-6 26 -6 30 1 4 6 13 6 23 0 9 -5 26 -5 40 0 13 5 21 6 19 1 -3 -4 19 -7 49
-7 30 0 54 3 54 7 0 4 11 3 25 -2 15 -6 26 -6 30 0 4 7 13 7 24 0 10 -5 21 -6
25 -2 4 3 19 7 34 7 60 2 148 46 196 98 55 61 100 202 86 272 -4 17 -3 39 1
51 4 11 3 27 -1 34 -5 8 -5 21 0 30 5 9 5 22 0 30 -5 8 -5 21 0 30 5 9 5 22 1
28 -4 7 -5 35 -1 62 4 27 3 55 -1 62 -4 6 -4 19 1 28 5 9 5 22 0 29 -4 8 -4
27 0 42 5 16 5 31 0 34 -5 3 -6 16 -1 28 4 12 5 33 1 47 -3 14 -3 42 0 62 4
20 4 42 -1 49 -4 7 -4 20 1 29 5 9 5 22 0 29 -4 8 -4 27 0 42 5 16 5 31 0 34
-5 3 -6 16 -1 28 4 12 5 33 1 47 -4 14 -4 36 0 50 3 14 3 39 0 55 -4 17 -3 39
1 51 4 11 3 27 -1 34 -5 8 -5 21 0 30 5 9 5 22 0 30 -5 8 -5 21 0 31 5 9 6 19
3 23 -3 3 -5 29 -4 58 1 29 1 62 1 73 -1 11 -1 27 -1 35 3 83 1 141 -4 150 -3
5 -2 10 4 10 6 0 6 11 1 30 -5 17 -5 32 0 35 5 3 6 15 0 29 -4 12 -4 29 0 36
5 8 6 18 3 24 -3 5 -5 32 -4 60 1 28 1 60 1 71 -1 11 -1 26 -1 33 1 28 2 99 2
132 -1 34 -1 54 -1 85 0 8 0 22 0 30 0 8 0 22 0 30 0 8 0 21 1 28 6 120 -31
238 -95 301 -46 44 -132 87 -186 91 -23 2 -44 6 -47 9 -3 3 -14 1 -24 -4 -11
-7 -20 -7 -24 0 -3 6 -15 6 -30 0 -13 -5 -26 -6 -29 -2 -5 8 -64 8 -72 -1 -4
-3 -15 -2 -25 4 -13 6 -19 6 -19 0 0 -7 -8 -7 -22 -2 -13 5 -32 5 -43 1 -11
-4 -25 -3 -32 2 -7 5 -14 5 -18 -2 -4 -7 -12 -7 -26 0 -12 7 -19 7 -19 1 0 -7
-8 -7 -22 -2 -13 5 -32 5 -43 1 -11 -4 -25 -3 -32 2 -7 5 -14 5 -18 -2 -4 -7
-12 -7 -26 0 -12 7 -19 7 -19 1 0 -7 -8 -7 -22 -2 -13 5 -32 5 -43 1 -11 -4
-25 -3 -32 2 -7 5 -14 5 -18 -2 -4 -7 -12 -7 -26 0 -12 7 -19 7 -19 1 0 -7 -8
-7 -24 -1 -13 5 -26 7 -29 4 -8 -8 -88 -10 -93 -3 -2 4 -18 4 -34 -1 -18 -5
-30 -5 -30 0 0 6 -10 6 -25 0 -15 -6 -25 -6 -25 0 0 5 -12 5 -30 0 -16 -5 -30
-5 -30 -1 0 7 -96 4 -117 -4 -7 -2 -13 0 -13 5 0 6 -9 6 -25 0 -15 -6 -25 -6
-25 0 0 5 -12 5 -30 0 -16 -5 -30 -5 -30 -1 0 7 -86 5 -107 -4 -7 -2 -13 -1
-13 3 0 8 -68 8 -76 -1 -4 -4 -15 -2 -25 4 -13 6 -19 6 -19 0 0 -7 -8 -7 -22
-2 -13 5 -32 5 -43 1 -11 -4 -25 -3 -32 2 -7 5 -14 5 -18 -2 -4 -7 -12 -7 -26
0 -12 7 -19 7 -19 1 0 -7 -8 -7 -24 -1 -13 5 -26 7 -29 4 -7 -7 -87 -11 -87
-4 0 3 -16 5 -35 5 -19 0 -35 -2 -35 -5z m385 -640 c3 6 15 6 30 0 14 -5 27
-5 30 0 3 5 18 5 35 0 18 -5 30 -5 30 0 0 6 10 6 24 0 13 -5 27 -6 30 -3 8 8
76 9 76 1 0 -4 14 -3 30 2 17 5 30 5 30 1 0 -4 22 -5 50 -1 27 3 55 3 62 -1 6
-4 20 -3 29 2 11 6 20 5 24 -1 3 -5 15 -6 28 -1 12 5 34 5 49 0 16 -4 28 -4
28 1 0 5 13 5 30 0 17 -5 30 -5 30 0 0 5 13 5 30 0 17 -5 30 -5 30 0 0 5 13 5
30 0 18 -5 30 -5 30 0 0 6 10 6 24 0 13 -5 27 -6 30 -3 8 8 76 9 76 1 0 -4 14
-3 30 2 17 5 30 5 30 1 0 -4 22 -5 50 -1 27 3 55 3 62 -1 6 -4 22 -3 35 2 12
5 23 5 23 0 0 -4 10 -7 22 -7 26 1 39 -35 27 -76 -4 -16 -4 -28 1 -28 5 0 7
-7 3 -16 -9 -25 -10 -57 -1 -81 4 -14 4 -23 -2 -23 -6 0 -6 -9 0 -25 5 -14 6
-25 2 -25 -9 0 -6 -65 3 -80 3 -6 2 -10 -4 -10 -7 0 -7 -8 -1 -25 5 -14 6 -25
2 -25 -9 0 -7 -94 2 -108 3 -6 2 -13 -3 -17 -7 -3 -7 -15 -1 -29 5 -13 7 -26
4 -29 -9 -9 -11 -62 -2 -84 4 -14 4 -23 -3 -23 -6 0 -7 -5 -4 -11 9 -14 10
-113 1 -128 -4 -6 -3 -11 3 -11 7 0 7 -8 1 -25 -5 -13 -5 -27 -1 -29 5 -3 5
-24 1 -46 -4 -24 -3 -43 2 -46 6 -4 6 -10 0 -16 -7 -7 -7 -19 -2 -33 5 -13 7
-25 4 -28 -9 -9 -11 -62 -2 -84 4 -14 4 -23 -2 -23 -6 0 -6 -9 0 -25 5 -14 6
-25 2 -25 -9 0 -6 -65 3 -80 3 -6 2 -10 -4 -10 -7 0 -7 -8 -1 -25 5 -14 6 -25
2 -25 -9 0 -7 -94 2 -108 3 -6 2 -13 -3 -17 -6 -3 -7 -15 -2 -28 14 -37 -3
-64 -43 -69 -20 -2 -36 -2 -36 2 0 3 -26 4 -57 2 -32 -1 -62 -3 -68 -3 -5 0
-28 0 -50 0 -22 1 -47 1 -55 0 -8 0 -37 0 -65 0 -79 1 -88 1 -130 0 -22 0 -47
0 -55 0 -57 2 -108 2 -116 0 -5 -1 -11 -1 -14 0 -14 6 -100 5 -100 0 0 -3 -19
-3 -43 1 -24 3 -54 3 -68 0 -13 -4 -33 -4 -43 0 -11 4 -36 4 -55 0 -20 -3 -49
-3 -66 0 -16 3 -49 3 -72 -1 -24 -3 -43 -3 -43 0 0 3 -21 5 -47 5 -41 -1 -49
1 -54 20 -3 11 -2 36 2 54 4 17 3 32 -2 32 -5 0 -4 12 1 26 6 16 7 32 1 42 -6
10 -6 23 0 34 6 10 5 19 -1 23 -7 4 -7 12 0 24 5 10 6 21 3 25 -8 8 -6 214 2
227 4 5 2 9 -4 9 -7 0 -7 8 -2 23 5 13 5 30 1 37 -5 8 -6 18 -3 23 8 13 9 77
1 90 -3 6 -2 19 3 28 6 12 5 20 -1 24 -6 4 -8 11 -4 16 8 13 11 79 4 79 -6 0
-3 199 4 217 3 7 1 13 -4 13 -6 0 -6 10 0 26 6 16 7 32 1 42 -6 10 -6 23 0 34
6 10 5 19 -1 23 -7 4 -7 12 0 24 5 10 6 21 3 25 -8 8 -6 214 2 227 4 5 2 9 -4
9 -7 0 -7 8 -2 23 5 13 5 30 1 37 -5 8 -5 21 0 31 5 9 6 20 2 24 -4 4 3 5 15
2 13 -3 25 -1 28 4 3 4 16 4 30 -1 15 -6 27 -6 30 0z"/>
<path d="M7538 9278 c-24 -8 -26 -12 -18 -34 6 -14 6 -23 2 -20 -7 4 -6 -79 2
-100 2 -6 0 -17 -4 -25 -5 -7 -5 -18 1 -25 7 -8 7 -14 0 -18 -6 -4 -7 -15 -2
-29 5 -12 5 -32 0 -45 -6 -14 -5 -31 1 -43 7 -13 7 -19 1 -19 -7 0 -7 -8 -2
-23 5 -13 5 -30 0 -39 -6 -11 -5 -19 1 -23 6 -4 7 -11 4 -17 -10 -16 -11 -67
-2 -61 5 2 4 -7 -2 -21 -6 -16 -6 -26 0 -26 6 0 6 -9 0 -24 -5 -15 -5 -27 2
-34 7 -7 7 -16 -1 -29 -7 -14 -7 -23 0 -30 8 -8 8 -13 0 -17 -7 -4 -7 -15 -1
-30 5 -13 7 -26 4 -29 -9 -9 -11 -62 -2 -84 4 -14 4 -23 -2 -23 -6 0 -6 -9 0
-25 5 -14 6 -25 2 -25 -4 0 -7 -18 -7 -40 0 -22 3 -40 7 -40 4 0 3 -11 -2 -25
-6 -16 -6 -25 0 -25 6 0 6 -9 0 -24 -5 -15 -5 -27 2 -34 7 -7 6 -16 -1 -30 -8
-15 -8 -23 -1 -27 7 -4 7 -11 2 -18 -5 -7 -6 -21 -2 -32 4 -11 3 -30 -1 -43
-6 -14 -5 -31 1 -43 7 -13 7 -19 1 -19 -7 0 -7 -8 -2 -23 5 -13 5 -30 0 -39
-6 -11 -5 -19 1 -23 6 -4 7 -11 4 -17 -10 -16 -11 -67 -2 -61 5 2 4 -7 -2 -21
-6 -16 -6 -26 0 -26 6 0 6 -9 0 -24 -5 -15 -5 -27 2 -34 7 -7 7 -16 -1 -29 -7
-14 -7 -23 0 -30 8 -8 8 -13 0 -17 -7 -4 -7 -15 -1 -30 5 -13 7 -26 4 -29 -9
-9 -11 -62 -2 -84 4 -14 4 -23 -2 -23 -6 0 -6 -9 0 -25 5 -14 6 -25 2 -25 -4
0 -7 -18 -7 -40 0 -22 3 -40 7 -40 4 0 3 -11 -2 -25 -6 -16 -6 -25 0 -25 6 0
6 -9 0 -24 -5 -15 -5 -27 2 -34 7 -7 6 -16 -1 -30 -8 -15 -8 -23 -1 -27 7 -4
7 -11 2 -18 -5 -7 -6 -21 -2 -32 4 -11 3 -30 -1 -43 -6 -14 -5 -31 1 -43 7
-13 7 -19 1 -19 -7 0 -7 -8 -2 -23 5 -13 5 -30 0 -39 -6 -11 -5 -19 1 -23 6
-4 7 -11 4 -17 -10 -16 -11 -67 -2 -61 5 2 4 -7 -2 -21 -6 -16 -6 -26 0 -26 6
0 6 -9 0 -24 -5 -13 -6 -27 -3 -30 3 -3 7 -28 9 -56 2 -28 7 -56 11 -63 4 -7
8 -14 8 -17 2 -16 38 -70 69 -102 90 -94 238 -121 360 -65 49 23 113 82 438
407 209 209 384 380 388 380 3 0 173 -165 376 -367 203 -203 380 -377 394
-389 62 -50 184 -73 271 -52 87 22 165 89 208 178 l26 55 3 1317 2 1317 -22 3
c-13 2 -38 1 -55 -3 -18 -4 -33 -4 -33 0 0 8 -68 6 -76 -2 -4 -4 -15 -2 -25 4
-13 6 -19 6 -19 0 0 -7 -8 -7 -22 -2 -13 5 -32 5 -43 1 -11 -4 -25 -3 -32 2
-7 5 -14 5 -18 -2 -4 -7 -12 -7 -26 0 -12 7 -19 7 -19 1 0 -7 -8 -7 -22 -2
-13 5 -33 5 -46 0 -14 -5 -31 -5 -41 0 -10 6 -23 6 -31 1 -8 -5 -18 -6 -22 -4
-16 10 -85 9 -86 -1 -6 -65 -6 -97 0 -101 5 -3 5 -10 2 -16 -10 -16 -11 -59
-2 -85 4 -13 3 -23 -2 -23 -6 0 -6 -9 0 -25 5 -14 6 -25 2 -25 -9 0 -6 -65 3
-80 3 -6 2 -10 -4 -10 -7 0 -7 -8 -1 -25 5 -14 6 -25 2 -25 -4 0 -7 -22 -7
-50 0 -27 4 -50 8 -50 4 0 4 -8 -2 -17 -5 -10 -5 -26 -1 -39 5 -12 7 -24 4
-27 -8 -8 -10 -88 -2 -93 4 -3 3 -16 -2 -29 -6 -17 -6 -25 1 -25 6 0 7 -5 3
-11 -9 -15 -8 -114 1 -128 3 -6 3 -11 -2 -11 -9 0 -9 -108 0 -117 3 -3 2 -16
-3 -29 -6 -16 -6 -24 1 -24 6 0 7 -5 3 -11 -9 -15 -8 -114 1 -128 3 -6 3 -11
-2 -11 -4 0 -8 -22 -8 -50 0 -27 4 -50 8 -50 4 0 4 -8 -1 -17 -5 -10 -6 -27
-2 -38 4 -11 4 -29 1 -40 -8 -22 -7 -55 2 -79 4 -9 2 -16 -3 -16 -6 0 -6 -9 0
-25 5 -14 6 -25 2 -25 -4 0 -7 -18 -7 -40 0 -22 3 -40 7 -40 4 0 3 -11 -2 -24
-5 -14 -6 -26 -2 -28 4 -2 5 -22 2 -46 l-5 -43 -222 220 c-260 258 -284 274
-408 275 -133 1 -157 -15 -416 -273 -152 -151 -222 -215 -226 -205 -3 8 -3 18
0 21 4 3 3 13 -2 22 -5 9 -5 25 -1 36 4 11 4 34 -1 52 -4 18 -3 36 2 39 5 3 7
9 5 13 -5 8 -7 43 -6 144 0 31 -1 63 -1 70 0 12 0 146 0 180 1 28 1 126 0 140
0 12 0 146 0 180 1 28 1 126 0 140 0 12 0 146 0 180 1 28 1 126 0 140 -1 22 0
229 2 324 1 68 -6 87 -27 79 -8 -3 -14 0 -14 6 0 7 -4 7 -13 0 -8 -7 -18 -7
-27 -2 -8 5 -21 5 -30 0 -9 -5 -22 -5 -30 0 -7 4 -24 4 -36 0 -14 -6 -26 -5
-29 0 -4 7 -13 6 -25 0 -12 -6 -21 -7 -25 0 -4 6 -15 6 -30 0 -14 -5 -25 -6
-25 -2 0 8 -118 7 -127 -1 -3 -4 -14 -2 -24 4 -13 6 -25 6 -37 0 -13 -7 -22
-7 -29 0 -8 8 -13 8 -17 0 -4 -6 -15 -7 -29 -2 -12 4 -34 4 -49 -1z"/>
<path d="M4069 6086 c-2 -2 -37 -6 -78 -9 -122 -9 -223 -72 -273 -171 -26 -50
-47 -155 -37 -182 4 -11 3 -27 -1 -34 -5 -8 -6 -18 -3 -24 3 -5 5 -32 4 -60
-1 -28 -1 -60 -1 -71 1 -11 1 -26 1 -32 -1 -29 -2 -100 -2 -133 1 -34 1 -54 1
-85 0 -8 0 -22 0 -30 0 -8 0 -22 0 -30 0 -28 0 -50 0 -100 -1 -27 0 -59 0 -70
1 -11 1 -27 1 -35 -3 -83 -1 -141 4 -150 3 -5 2 -10 -4 -10 -6 0 -6 -11 -1
-30 5 -17 5 -32 0 -35 -5 -3 -6 -15 0 -29 4 -12 4 -29 0 -36 -5 -8 -6 -18 -3
-24 3 -5 5 -32 4 -60 -1 -28 -1 -60 -1 -71 1 -11 1 -26 1 -32 -3 -92 -3 -125
2 -130 4 -3 2 -13 -3 -22 -5 -10 -5 -23 0 -30 4 -8 4 -27 0 -42 -5 -16 -5 -31
0 -34 5 -3 6 -16 1 -28 -4 -12 -5 -33 -1 -47 3 -14 3 -42 0 -62 -4 -20 -4 -42
1 -49 4 -7 4 -20 -1 -29 -5 -9 -5 -22 0 -29 4 -8 4 -27 0 -42 -5 -16 -5 -31 0
-34 5 -3 6 -16 1 -28 -4 -12 -5 -33 -1 -47 3 -14 3 -42 0 -62 -4 -20 -4 -42 1
-49 4 -7 4 -20 -1 -29 -5 -9 -5 -22 0 -29 4 -8 4 -27 0 -42 -5 -16 -5 -31 0
-34 5 -3 6 -16 1 -28 -4 -12 -5 -33 -1 -47 3 -14 3 -42 0 -62 -4 -20 -4 -42 1
-49 4 -7 4 -20 -1 -29 -5 -9 -5 -22 0 -29 4 -8 4 -27 0 -42 -5 -16 -5 -31 0
-34 5 -3 6 -16 1 -28 -4 -12 -5 -33 -1 -47 4 -14 4 -36 0 -50 -3 -14 -3 -38 0
-55 4 -16 3 -39 -1 -51 -4 -11 -3 -27 1 -34 5 -8 5 -21 0 -30 -5 -9 -5 -22 0
-30 5 -8 5 -21 0 -31 -5 -9 -6 -19 -3 -23 3 -3 5 -29 4 -58 -1 -29 -1 -62 -1
-73 1 -11 1 -27 1 -35 -3 -83 -1 -141 4 -150 3 -5 2 -10 -4 -10 -6 0 -6 -11
-1 -30 5 -17 5 -32 0 -35 -5 -3 -6 -15 0 -29 4 -12 4 -29 0 -36 -5 -8 -6 -18
-3 -24 3 -5 5 -32 4 -60 -1 -28 -1 -60 -1 -71 1 -11 1 -26 1 -32 -1 -29 -2
-100 -2 -133 1 -34 1 -54 1 -85 0 -8 0 -22 0 -30 0 -8 0 -22 0 -30 0 -8 0 -21
-1 -27 -2 -46 11 -159 22 -188 39 -106 142 -188 259 -205 24 -4 47 -8 50 -10
3 -2 12 0 20 5 8 5 21 5 30 0 9 -5 22 -5 30 0 8 5 21 5 30 0 9 -5 22 -5 30 0
7 4 24 4 36 0 14 -6 26 -5 29 0 4 6 13 7 24 1 10 -6 23 -6 31 -1 8 5 19 6 24
3 12 -8 102 -7 115 1 5 4 12 2 15 -3 4 -6 18 -6 35 -1 15 4 34 4 42 0 7 -5 20
-5 28 -1 8 5 27 5 43 1 16 -5 28 -5 28 0 0 6 9 6 23 1 12 -5 32 -5 45 0 12 5
22 5 22 -1 0 -5 13 -5 30 0 17 5 30 5 30 0 0 -5 12 -5 28 -1 15 5 37 5 49 0
13 -5 25 -4 28 1 4 6 13 7 24 1 10 -6 23 -6 31 -1 8 5 19 6 24 3 12 -8 102 -7
115 1 5 4 12 3 15 -2 3 -5 28 -6 56 -2 27 4 50 4 50 1 0 -7 101 -4 107 3 3 3
16 1 29 -4 14 -6 26 -6 29 0 4 6 13 7 23 1 10 -5 24 -6 33 -1 8 5 21 5 29 0 7
-4 24 -4 37 1 14 5 23 5 23 -1 0 -6 9 -6 25 0 15 6 27 6 30 0 3 -6 15 -6 30 0
14 5 25 6 25 2 0 -6 41 -6 135 -1 6 0 20 -2 32 -5 13 -2 25 -1 28 5 4 5 14 5
26 -1 12 -7 19 -7 19 -1 0 7 8 7 24 1 13 -5 26 -6 29 -4 3 3 27 7 54 8 163 9
295 141 297 298 1 32 4 58 7 58 4 0 3 16 -1 35 -4 19 -5 35 -1 35 3 0 6 27 6
60 0 33 -3 60 -7 60 -4 0 -4 11 1 23 5 13 6 30 1 37 -4 7 -6 18 -4 24 7 17 10
106 4 106 -3 0 -5 23 -5 50 0 28 3 50 6 50 4 0 3 16 -1 35 -4 19 -5 35 -1 35
3 0 6 38 6 85 0 47 -2 85 -5 85 -3 0 -5 18 -5 40 0 22 2 40 5 40 3 0 4 17 3
38 -7 93 -8 122 -2 122 4 0 3 16 -1 35 -4 19 -5 35 -1 35 3 0 6 27 6 60 0 33
-3 60 -7 60 -4 0 -4 11 1 23 5 13 6 30 1 37 -4 7 -6 18 -4 24 7 17 10 106 4
106 -3 0 -5 23 -5 50 0 28 3 50 6 50 4 0 3 16 -1 35 -4 19 -5 35 -1 35 3 0 6
38 6 85 0 47 -2 85 -5 85 -3 0 -5 18 -5 40 0 22 2 40 5 40 3 0 4 17 3 38 -7
93 -8 122 -2 122 4 0 3 16 -1 35 -4 19 -5 35 -1 35 7 0 6 109 -2 117 -3 3 -2
15 3 28 5 13 6 25 3 28 -3 3 -6 30 -8 60 -3 66 -41 154 -85 197 -64 63 -122
89 -208 95 -24 2 -46 6 -49 9 -3 3 -14 1 -24 -4 -11 -7 -20 -7 -24 0 -4 6 -15
6 -30 0 -14 -5 -25 -6 -25 -2 0 4 -13 7 -30 7 -16 0 -30 -3 -30 -7 0 -4 -11
-3 -25 2 -16 6 -25 6 -25 -1 0 -6 -6 -6 -18 0 -11 6 -24 6 -34 0 -10 -6 -19
-6 -23 0 -4 7 -15 7 -30 1 -14 -5 -25 -6 -25 -2 0 4 -13 7 -30 7 -16 0 -30 -3
-30 -7 0 -4 -11 -3 -25 2 -16 6 -25 6 -25 -1 0 -6 -6 -6 -18 0 -11 6 -24 6
-34 0 -10 -6 -19 -6 -23 0 -4 7 -15 7 -30 1 -14 -5 -25 -6 -25 -2 0 8 -52 8
-66 -1 -6 -3 -16 -2 -24 3 -9 5 -19 5 -26 -1 -7 -6 -15 -6 -18 -1 -3 5 -28 6
-56 2 -27 -4 -50 -4 -50 -1 0 3 -24 6 -54 6 l-55 0 -3 -68 c-2 -38 0 -71 5
-74 4 -2 5 -8 2 -13 -9 -14 -7 -472 2 -481 5 -5 20 -9 33 -10 48 -1 275 0 295
1 24 2 29 2 85 1 25 -1 69 0 98 1 28 2 52 0 52 -3 0 -3 13 -4 29 -1 22 3 32
-1 40 -17 8 -13 8 -21 2 -21 -7 0 -7 -9 -1 -25 6 -16 6 -25 0 -25 -6 0 -6 -9
0 -25 5 -14 6 -25 2 -25 -4 0 -7 -13 -7 -30 0 -16 3 -30 7 -30 4 0 5 -6 2 -14
-8 -21 -10 -216 -2 -216 4 0 3 -12 -2 -26 -6 -15 -6 -32 -1 -42 6 -11 6 -24 0
-34 -6 -11 -6 -19 1 -23 7 -4 7 -12 0 -25 -6 -12 -7 -21 0 -25 5 -3 7 -12 4
-19 -8 -22 -10 -216 -2 -216 4 0 4 -11 -1 -23 -5 -13 -5 -30 -1 -37 5 -8 6
-18 3 -23 -8 -13 -9 -77 -1 -90 3 -6 2 -19 -3 -28 -6 -12 -5 -20 1 -24 6 -4 8
-11 4 -16 -9 -16 -10 -79 -1 -79 4 0 5 -5 2 -10 -6 -9 -7 -42 -5 -140 1 -8 -1
-32 -2 -52 -2 -21 0 -38 4 -38 4 0 3 -11 -2 -25 -6 -16 -6 -25 0 -25 6 0 6 -9
0 -25 -6 -15 -6 -25 0 -25 5 0 5 -12 0 -30 -5 -16 -5 -30 0 -30 4 0 6 -9 3
-21 -3 -12 -11 -18 -19 -15 -8 3 -14 2 -14 -2 0 -6 -23 -6 -115 1 -16 1 -40
-1 -52 -5 -13 -4 -23 -4 -23 0 0 4 -34 7 -75 7 -41 0 -75 -3 -75 -6 0 -4 -16
-3 -35 1 -19 4 -35 5 -35 1 0 -3 -22 -6 -50 -6 -27 0 -50 3 -50 7 0 4 -13 3
-30 -2 -16 -5 -30 -6 -30 -2 0 4 -43 7 -95 7 -52 0 -95 -3 -95 -7 0 -4 -6 -5
-14 -2 -21 8 -176 10 -176 2 0 -4 -13 -3 -30 2 -16 5 -30 5 -30 0 0 -4 -12 -5
-27 -1 -15 4 -47 4 -70 1 -24 -4 -46 -3 -49 1 -2 5 -15 5 -27 0 -12 -4 -33 -4
-47 0 -14 4 -22 7 -18 8 4 1 3 12 -2 26 -6 15 -6 25 0 25 5 0 5 12 0 30 -5 17
-5 30 0 30 5 0 5 13 0 28 -4 16 -4 36 2 45 6 11 5 17 -1 17 -6 0 -6 11 -1 30
5 17 5 30 1 30 -4 0 -5 23 -1 50 4 28 3 53 -1 56 -5 3 -4 16 1 29 6 16 6 25 0
25 -6 0 -6 9 -1 23 5 12 5 32 0 45 -5 12 -5 22 1 22 5 0 5 12 0 28 -4 16 -4
35 1 43 4 8 4 21 -1 28 -4 8 -4 27 0 42 5 16 5 31 0 34 -5 3 -5 16 0 30 6 16
6 25 0 25 -6 0 -6 9 -1 23 5 12 5 32 0 45 -5 12 -5 22 1 22 5 0 5 12 0 29 -4
15 -4 34 0 42 5 7 4 21 -1 31 -6 12 -6 25 1 38 8 14 8 20 0 20 -8 0 -8 6 0 20
8 14 8 20 0 20 -8 0 -8 6 0 20 8 14 8 20 0 20 -7 0 -8 6 -1 18 13 25 13 25 2
55 -6 15 -7 27 -1 27 5 0 5 12 0 30 -5 19 -5 30 1 30 7 0 7 6 0 17 -6 11 -6
24 0 35 6 12 6 18 0 18 -6 0 -6 11 -1 30 5 19 5 30 -1 30 -6 0 -6 6 0 18 6 11
6 24 0 35 -7 11 -6 24 1 37 8 14 8 20 0 20 -8 0 -8 6 0 20 8 14 8 20 0 20 -8
0 -8 6 0 20 8 14 8 20 0 20 -8 0 -8 6 0 20 8 14 8 20 0 20 -8 0 -8 6 0 20 8
14 8 20 0 20 -8 0 -8 6 0 20 8 14 8 20 0 20 -8 0 -8 6 0 20 8 14 8 20 0 20 -7
0 -8 6 -1 18 11 21 11 30 0 60 -5 13 -5 22 1 22 5 0 5 12 0 30 -5 19 -5 30 1
30 6 0 6 6 0 18 -6 11 -6 24 0 35 7 11 7 17 0 17 -6 0 -6 11 -1 30 5 19 5 30
-1 30 -6 0 -6 6 0 18 6 11 6 24 0 35 -7 11 -6 24 1 37 8 14 8 20 0 20 -8 0 -8
6 0 20 8 14 8 20 0 20 -8 0 -8 6 0 20 8 14 8 20 0 20 -6 0 -8 5 -5 11 10 15
12 80 3 85 -4 3 -3 16 2 29 6 16 6 25 0 25 -6 0 -6 9 -1 23 5 12 5 32 0 45 -5
12 -5 22 1 22 5 0 5 12 0 28 -4 16 -4 35 1 43 4 8 4 21 -1 28 -4 8 -4 27 0 42
5 16 5 31 0 34 -5 3 -5 16 0 30 6 16 6 25 0 25 -6 0 -6 9 -1 23 5 12 5 32 0
45 -5 12 -5 22 1 22 5 0 5 12 0 29 -4 15 -4 34 0 42 5 7 4 21 -1 30 -6 11 -5
20 1 24 7 4 7 12 0 25 -6 11 -6 21 -1 25 6 3 6 17 1 35 -5 17 -5 30 0 30 5 0
5 13 0 30 -5 19 -5 30 1 30 6 0 6 6 0 18 -5 10 -6 24 -1 33 5 8 5 21 1 28 -12
19 -1 63 15 57 7 -3 16 -1 19 4 4 7 13 7 24 0 12 -6 22 -5 28 1 7 7 13 7 17 1
4 -7 17 -7 35 -2 15 4 34 4 42 0 7 -5 20 -5 28 0 8 4 25 4 38 -1 14 -5 25 -4
29 2 4 7 10 6 19 -1 9 -8 15 -8 20 0 4 6 12 7 24 0 12 -6 22 -5 28 1 8 8 13 7
17 0 5 -8 13 -8 26 -1 12 6 21 7 25 0 3 -5 15 -6 29 0 12 4 29 4 36 0 8 -5 22
-4 31 1 11 6 20 5 24 -1 4 -6 15 -6 30 0 14 5 25 6 25 2 0 -8 52 -8 66 1 6 3
16 2 24 -3 9 -5 19 -5 26 1 7 6 15 6 18 1 3 -5 28 -6 56 -2 27 4 50 4 50 1 0
-3 14 -6 30 -6 17 0 30 3 30 7 0 4 11 3 25 -2 16 -6 25 -6 25 1 0 6 6 6 18 0
11 -6 24 -6 34 0 10 6 19 6 23 0 4 -7 15 -7 30 -1 14 5 25 6 25 2 0 -4 14 -7
30 -7 17 0 30 3 30 7 0 4 11 3 25 -2 16 -6 25 -6 25 0 0 6 9 6 25 0 14 -5 27
-5 30 0 3 5 18 5 35 0 18 -5 30 -5 30 0 0 6 10 6 25 0 15 -6 26 -6 30 0 4 6
14 7 23 2 19 -9 54 -8 71 2 6 4 11 2 11 -4 0 -8 6 -8 20 0 14 8 20 8 20 0 0
-8 6 -8 20 0 14 8 20 8 20 0 0 -8 6 -8 20 0 14 8 20 8 20 0 0 -8 6 -8 20 0 14
8 20 8 20 0 0 -8 6 -8 20 0 14 8 20 8 20 0 0 -8 6 -8 20 0 14 8 20 8 20 0 0
-6 5 -8 11 -5 13 9 79 12 79 5 0 -3 16 -5 35 -5 19 0 35 3 35 7 0 3 8 4 19 1
14 -3 20 2 23 21 3 14 2 26 -1 26 -3 0 -6 18 -6 40 0 22 2 40 5 40 3 0 5 16 5
35 0 19 -3 35 -7 35 -4 0 -3 14 2 30 5 17 5 30 1 30 -4 0 -4 25 -1 55 3 30 3
60 -1 66 -3 6 -3 26 1 45 4 19 4 34 0 34 -5 0 -5 14 0 30 5 17 5 30 0 30 -5 0
-5 13 0 30 5 17 5 30 0 30 -4 0 -6 13 -4 30 l5 29 -63 3 c-35 2 -89 1 -121 -2
-32 -3 -60 -3 -63 1 -2 4 -18 3 -36 0 -18 -4 -50 -4 -70 0 -21 3 -38 4 -38 0
0 -3 -24 -5 -52 -4 -46 2 -139 3 -188 2 -8 0 -62 0 -120 0 -58 0 -112 0 -120
0 -8 0 -28 0 -45 0 -16 1 -39 1 -50 0 -34 0 -229 -1 -242 0 -7 0 -38 0 -68 0
-30 0 -62 0 -70 1 -39 1 -125 1 -235 1 -36 -1 -123 0 -195 0 -71 0 -146 0
-165 -1 -19 -1 -41 -2 -47 -1 -18 1 -40 2 -106 1 -32 0 -62 2 -66 5 -5 2 -10
3 -12 1z"/>
<path d="M6565 6075 c-3 -8 -7 -22 -10 -30 -2 -8 0 -17 5 -20 6 -3 6 -15 0
-30 -6 -16 -6 -25 0 -25 6 0 6 -9 1 -22 -5 -13 -5 -33 0 -45 5 -14 5 -23 -1
-23 -5 0 -5 -12 0 -28 4 -16 4 -35 -1 -43 -4 -8 -4 -21 1 -28 4 -8 4 -27 0
-42 -5 -16 -5 -31 0 -34 5 -3 5 -16 0 -30 -6 -17 -6 -25 1 -25 6 0 7 -6 1 -17
-6 -9 -6 -29 -2 -45 5 -15 6 -28 2 -28 -4 0 -7 -11 -7 -25 0 -14 3 -25 7 -25
4 0 3 -11 -2 -25 -8 -20 -5 -27 12 -40 13 -9 26 -11 31 -6 5 5 22 5 38 1 17
-5 31 -5 34 1 4 5 14 5 26 -1 13 -8 25 -7 39 0 14 8 20 8 20 0 0 -8 6 -8 20 0
14 8 20 8 20 0 0 -8 6 -8 20 0 14 8 20 8 20 0 0 -8 6 -8 20 0 14 8 20 8 20 0
0 -8 6 -8 20 0 14 8 20 8 20 0 0 -8 6 -8 20 0 14 8 20 8 20 0 0 -8 6 -8 20 0
14 8 20 8 20 0 0 -6 5 -8 11 -5 16 10 79 12 79 2 0 -4 9 -3 19 3 13 7 22 7 26
0 4 -7 12 -7 25 0 13 7 21 7 26 -2 12 -20 21 22 14 63 -4 21 -4 43 1 50 4 7 4
20 -1 29 -4 8 -4 22 0 31 5 8 5 21 0 29 -5 8 -5 21 0 30 5 9 5 22 1 29 -5 7
-5 29 -2 49 4 20 4 51 1 67 -4 17 -3 39 1 51 4 11 3 27 -1 34 -5 8 -5 21 0 30
5 9 5 22 0 30 -5 8 -5 21 0 30 5 9 5 22 0 30 -5 8 -7 25 -3 37 5 20 1 23 -28
24 -19 1 -38 0 -44 -1 -11 -3 -49 -1 -80 4 -11 1 -34 0 -52 -5 -18 -4 -35 -3
-38 1 -3 4 -21 4 -40 0 -19 -4 -37 -4 -40 0 -3 4 -21 4 -40 0 -19 -4 -37 -4
-40 0 -3 4 -21 4 -40 0 -19 -4 -50 -5 -67 -1 -18 4 -44 4 -58 1 -14 -4 -33 -3
-43 2 -12 6 -19 5 -22 -7z"/>
<path d="M6586 4480 c-25 -8 -36 -39 -25 -67 5 -15 5 -23 -2 -23 -6 0 -6 -7 1
-19 5 -11 6 -22 1 -25 -9 -6 -6 -60 4 -77 4 -5 2 -9 -4 -9 -6 0 -6 -11 -1 -30
5 -19 5 -30 -1 -30 -6 0 -6 -6 0 -18 6 -11 6 -24 0 -35 -7 -11 -7 -17 0 -17 6
0 6 -11 1 -30 -5 -19 -5 -30 1 -30 6 0 6 -6 0 -18 -6 -11 -6 -24 0 -35 7 -11
6 -24 -1 -37 -8 -14 -8 -20 0 -20 8 0 8 -6 0 -20 -8 -14 -8 -20 0 -20 8 0 8
-6 0 -20 -8 -14 -8 -20 0 -20 7 0 8 -6 1 -17 -11 -22 -11 -34 0 -55 5 -10 5
-19 0 -23 -6 -3 -6 -17 -1 -35 5 -17 5 -30 0 -30 -5 0 -5 -13 0 -28 4 -16 4
-36 -2 -45 -6 -11 -5 -17 1 -17 6 0 6 -11 1 -30 -5 -16 -5 -30 -2 -30 9 0 7
-64 -3 -79 -3 -6 -1 -11 5 -11 8 0 8 -6 0 -20 -8 -14 -8 -20 0 -20 8 0 8 -6 0
-20 -8 -14 -8 -20 0 -20 7 0 7 -7 -1 -22 -7 -13 -11 -25 -9 -28 12 -21 18 -50
10 -50 -5 0 -5 -12 0 -30 5 -19 5 -30 -1 -30 -7 0 -7 -6 0 -17 6 -11 6 -24 0
-35 -6 -12 -6 -18 0 -18 6 0 6 -11 1 -30 -5 -19 -5 -30 1 -30 6 0 6 -6 0 -18
-6 -11 -6 -24 0 -35 7 -11 6 -24 -1 -37 -8 -14 -8 -20 0 -20 8 0 8 -6 0 -20
-8 -14 -8 -20 0 -20 8 0 8 -6 0 -20 -8 -14 -8 -20 0 -20 7 0 7 -7 -1 -22 -7
-13 -11 -25 -10 -28 2 -3 7 -13 12 -22 5 -10 5 -19 0 -23 -6 -3 -6 -17 -1 -35
5 -17 5 -30 0 -30 -5 0 -5 -13 0 -28 4 -16 4 -36 -2 -45 -6 -11 -5 -17 1 -17
6 0 6 -11 1 -30 -5 -16 -5 -30 -2 -30 9 0 7 -64 -3 -79 -3 -6 -1 -11 5 -11 8
0 8 -6 0 -20 -8 -14 -8 -20 0 -20 8 0 8 -6 0 -20 -8 -14 -8 -20 0 -20 7 0 8
-6 1 -17 -11 -22 -11 -31 0 -60 5 -14 5 -23 -1 -23 -5 0 -5 -12 0 -30 5 -19 5
-30 -1 -30 -6 0 -6 -6 0 -18 6 -11 6 -24 0 -35 -7 -11 -7 -17 0 -17 6 0 6 -11
1 -30 -5 -19 -5 -30 1 -30 6 0 6 -6 0 -18 -6 -11 -6 -24 0 -35 7 -11 6 -24 -1
-37 -8 -14 -8 -20 0 -20 8 0 8 -6 0 -20 -8 -14 -8 -20 0 -20 8 0 8 -6 0 -20
-8 -14 -8 -20 0 -20 6 0 8 -5 5 -11 -10 -15 -12 -80 -3 -85 4 -3 3 -16 -2 -29
-6 -17 -6 -25 1 -25 6 0 7 -6 1 -17 -6 -9 -6 -29 -2 -45 5 -15 6 -28 2 -28 -4
0 -7 -11 -7 -25 0 -14 3 -25 7 -25 4 0 3 -11 -2 -24 -6 -17 -5 -27 3 -34 18
-13 47 -22 47 -14 0 4 14 7 30 7 17 0 30 -2 30 -5 0 -7 69 -4 76 3 4 4 15 2
25 -4 13 -6 19 -6 19 0 0 7 8 7 23 2 12 -5 31 -5 42 -1 11 4 25 3 32 -2 7 -5
14 -5 18 2 4 7 12 7 26 0 12 -7 19 -7 19 -1 0 7 8 7 24 1 13 -5 26 -7 29 -4 8
9 87 10 87 1 0 -4 8 -3 18 2 11 6 24 6 34 0 11 -6 19 -6 23 1 4 6 11 7 17 4
17 -11 25 15 18 56 -4 21 -3 44 1 52 4 8 4 20 -1 28 -5 8 -5 21 0 30 5 9 5 22
0 30 -5 8 -5 21 0 30 5 9 5 22 1 28 -4 7 -5 35 -1 62 4 27 3 55 -1 62 -4 6 -4
19 1 28 5 9 5 22 0 29 -4 8 -4 27 0 42 5 16 5 31 0 34 -5 3 -6 16 -1 28 4 12
5 33 1 47 -3 14 -3 42 0 62 4 20 4 42 -1 49 -4 7 -4 20 1 29 5 9 5 22 0 29 -4
8 -4 27 0 42 5 16 5 31 0 34 -5 3 -6 16 -1 28 4 12 5 33 1 47 -4 14 -4 36 0
50 3 14 3 39 0 55 -4 17 -3 39 1 51 4 11 3 27 -1 34 -5 8 -5 21 0 30 5 9 5 22
0 30 -5 8 -5 21 0 31 5 9 6 19 3 23 -3 3 -5 29 -4 58 1 29 1 62 1 73 -1 11 -1
27 -1 35 3 83 1 141 -4 150 -3 5 -2 10 4 10 6 0 6 11 1 30 -5 17 -5 32 0 35 5
3 6 15 0 29 -4 12 -4 29 0 36 5 8 6 18 3 24 -3 5 -5 32 -4 60 1 28 1 60 1 71
-1 11 -1 27 -1 35 3 59 1 133 -3 137 -3 3 -1 15 4 27 4 13 4 29 0 36 -5 8 -5
21 0 30 5 9 5 22 0 30 -5 8 -5 21 0 30 5 9 5 22 1 28 -4 7 -5 35 -1 62 4 27 3
55 -1 62 -4 6 -4 19 1 28 5 9 5 22 0 29 -4 8 -4 27 0 42 5 16 5 31 0 34 -5 3
-6 16 -1 28 4 12 5 33 1 47 -3 14 -3 42 0 62 4 20 4 42 -1 49 -4 7 -4 20 1 29
5 9 5 22 1 29 -5 7 -5 28 -1 47 4 19 4 34 0 34 -5 0 -5 13 0 29 4 15 4 34 0
41 -5 7 -6 19 -3 26 6 17 -29 35 -47 24 -7 -4 -24 -4 -36 0 -14 6 -26 5 -29 0
-4 -6 -13 -7 -23 -1 -9 5 -26 5 -37 1 -11 -4 -30 -4 -42 1 -14 5 -23 5 -23 -1
0 -6 -9 -6 -25 0 -14 5 -27 5 -30 0 -3 -5 -18 -5 -35 0 -18 5 -30 5 -30 0 0
-6 -10 -6 -25 0 -15 6 -26 6 -30 0 -4 -6 -13 -7 -23 -1 -11 6 -24 6 -34 0 -10
-6 -19 -6 -23 0 -4 7 -15 7 -30 1 -16 -6 -25 -6 -25 1 0 6 -6 6 -19 -1 -11 -5
-21 -6 -23 -1 -2 4 -12 5 -22 1z"/>
<path d="M7877 4484 c-2 -2 -28 -7 -58 -9 -117 -11 -196 -60 -260 -165 -17
-27 -43 -120 -35 -127 2 -2 0 -18 -4 -34 -5 -17 -5 -29 0 -29 6 0 6 -10 0 -25
-6 -16 -6 -25 0 -25 6 0 6 -9 0 -24 -5 -15 -5 -27 2 -34 7 -7 6 -16 -1 -30 -8
-15 -8 -23 -1 -27 7 -4 7 -11 2 -18 -5 -7 -6 -21 -2 -32 4 -11 3 -30 -1 -43
-6 -14 -5 -31 1 -43 7 -13 7 -19 1 -19 -7 0 -7 -8 -2 -23 5 -13 5 -30 0 -39
-6 -11 -5 -19 1 -23 6 -4 7 -11 4 -17 -10 -16 -11 -67 -2 -61 5 2 4 -7 -2 -21
-6 -16 -6 -26 0 -26 6 0 6 -9 0 -24 -5 -15 -5 -27 2 -34 7 -7 7 -16 -1 -29 -7
-14 -7 -23 0 -30 8 -8 8 -13 0 -17 -7 -4 -7 -15 -1 -30 5 -13 7 -26 4 -29 -9
-9 -11 -62 -2 -84 4 -14 4 -23 -2 -23 -6 0 -6 -9 0 -25 5 -14 6 -25 2 -25 -4
0 -7 -18 -7 -40 0 -22 3 -40 7 -40 4 0 3 -11 -2 -25 -6 -16 -6 -25 0 -25 6 0
6 -9 0 -24 -5 -15 -5 -27 2 -34 7 -7 6 -16 -1 -30 -8 -15 -8 -23 -1 -27 7 -4
7 -11 2 -18 -5 -7 -6 -21 -2 -32 4 -11 3 -30 -1 -43 -6 -14 -5 -31 1 -43 7
-13 7 -19 1 -19 -7 0 -7 -8 -2 -23 5 -13 5 -30 0 -39 -6 -11 -5 -19 1 -23 6
-4 7 -11 4 -17 -10 -16 -11 -67 -2 -61 5 2 4 -7 -2 -21 -6 -16 -6 -26 0 -26 6
0 6 -9 0 -24 -5 -15 -5 -27 2 -34 7 -7 7 -16 -1 -29 -7 -14 -7 -23 0 -30 8 -8
8 -13 0 -17 -7 -4 -7 -15 -1 -30 5 -13 7 -26 4 -29 -9 -9 -11 -62 -2 -84 4
-14 4 -23 -2 -23 -6 0 -6 -9 0 -25 5 -14 6 -25 2 -25 -4 0 -7 -18 -7 -40 0
-22 3 -40 7 -40 4 0 3 -11 -2 -25 -6 -16 -6 -25 0 -25 6 0 6 -9 0 -24 -5 -15
-5 -27 2 -34 7 -7 6 -16 -1 -30 -8 -15 -8 -23 -1 -27 7 -4 7 -11 2 -18 -5 -7
-6 -21 -2 -32 4 -11 4 -30 -1 -41 -4 -12 -6 -24 -3 -27 3 -2 7 -24 10 -48 3
-24 8 -46 12 -49 4 -3 8 -13 10 -23 2 -10 13 -33 26 -51 50 -74 136 -128 226
-141 24 -4 47 -8 50 -10 3 -2 12 0 20 5 8 5 21 5 30 0 9 -5 22 -5 30 0 8 5 21
5 30 0 9 -5 22 -5 30 0 7 4 24 4 36 0 14 -6 26 -5 29 0 4 6 13 7 24 1 10 -6
23 -6 31 -1 8 5 19 6 24 3 12 -8 102 -7 115 1 5 4 12 2 15 -3 4 -6 18 -6 34
-1 16 4 35 4 43 -1 8 -4 21 -4 28 1 8 4 27 4 42 0 17 -5 29 -5 29 0 0 6 10 6
25 0 15 -6 26 -6 30 0 4 6 13 7 24 1 10 -6 23 -6 31 -1 8 5 21 5 31 -1 10 -5
20 -6 22 -2 6 9 64 9 73 0 3 -3 17 -2 30 3 15 6 24 6 24 0 0 -6 9 -6 24 0 16
6 28 5 36 -3 10 -10 11 -6 8 16 -3 15 -2 30 3 32 4 3 4 19 -1 35 -5 17 -6 30
-2 30 4 0 6 24 5 52 -3 76 -4 113 -3 153 1 11 1 26 1 33 -1 6 -1 19 -1 27 0 8
0 23 0 33 0 36 2 119 3 155 1 20 -1 37 -5 37 -3 0 -4 9 -1 19 5 20 3 21 -52
21 -11 0 -29 0 -40 0 -11 1 -27 1 -35 0 -8 0 -28 0 -45 1 -135 4 -165 3 -165
-3 0 -4 -13 -3 -30 2 -16 5 -30 5 -30 0 0 -4 -12 -5 -27 -1 -15 4 -46 4 -70 1
-24 -4 -45 -4 -48 -1 -9 8 -35 10 -40 1 -2 -4 -15 -5 -28 -3 -22 4 -24 10 -26
76 -1 40 -2 79 -2 87 3 72 1 142 -4 149 -3 5 -1 12 5 16 6 4 8 10 6 14 -5 8
-7 43 -6 144 0 31 -1 63 -1 70 0 12 0 146 0 180 1 28 1 126 0 140 0 12 0 146
0 180 1 28 1 126 0 140 0 6 0 46 1 87 1 42 1 80 0 85 -2 6 -1 15 0 20 2 12 2
107 -1 121 -1 5 0 14 1 19 1 6 1 25 0 43 l-2 33 69 0 c37 -1 75 0 83 0 8 0 38
0 65 0 79 -1 88 -1 130 0 22 0 47 0 55 0 57 -2 108 -2 116 0 5 1 11 1 14 0 17
-7 100 -5 100 2 0 5 4 5 10 2 8 -5 230 -9 255 -5 6 2 14 2 19 1 22 -4 136 -4
141 0 2 3 31 2 64 -1 32 -3 70 -3 83 0 35 10 70 -3 79 -28 5 -12 5 -22 1 -22
-4 0 -7 -34 -7 -75 0 -41 4 -75 8 -75 4 0 4 -8 -2 -17 -5 -10 -5 -26 -1 -39 5
-12 7 -24 4 -27 -8 -8 -10 -88 -2 -93 4 -3 3 -16 -2 -29 -6 -17 -6 -25 1 -25
6 0 7 -5 3 -11 -9 -15 -8 -114 1 -128 3 -6 3 -11 -2 -11 -9 0 -9 -108 0 -117
3 -3 2 -16 -3 -29 -6 -16 -6 -24 1 -24 6 0 7 -5 3 -11 -9 -15 -8 -114 1 -128
3 -6 3 -11 -2 -11 -4 0 -8 -22 -8 -50 0 -27 4 -50 8 -50 4 0 4 -8 -1 -17 -5
-10 -6 -27 -2 -38 4 -11 5 -26 2 -33 -8 -23 -9 -56 0 -79 4 -14 4 -23 -2 -23
-6 0 -6 -9 0 -25 5 -14 6 -25 2 -25 -9 0 -6 -65 3 -80 3 -6 2 -10 -4 -10 -7 0
-7 -8 -1 -25 5 -14 6 -25 2 -25 -4 0 -7 -22 -7 -50 0 -27 4 -50 8 -50 4 0 4
-8 -2 -17 -5 -10 -5 -26 -1 -39 5 -12 7 -24 4 -27 -8 -8 -10 -88 -2 -93 4 -3
3 -16 -2 -29 -6 -17 -6 -25 1 -25 6 0 7 -5 3 -11 -9 -15 -8 -114 1 -128 3 -6
3 -11 -2 -11 -9 0 -9 -108 0 -117 3 -3 2 -16 -3 -29 -6 -16 -6 -24 1 -24 6 0
7 -5 3 -11 -9 -15 -8 -114 1 -128 3 -6 3 -11 -2 -11 -4 0 -8 -22 -8 -50 0 -27
4 -50 8 -50 4 0 4 -8 -1 -17 -5 -10 -6 -27 -2 -38 4 -11 4 -29 1 -40 -8 -22
-7 -55 2 -79 4 -9 2 -16 -3 -16 -6 0 -6 -9 0 -25 5 -14 6 -25 2 -25 -9 0 -6
-65 3 -80 3 -6 2 -10 -4 -10 -7 0 -7 -8 -1 -25 5 -14 6 -25 2 -25 -4 0 -7 -22
-7 -50 0 -27 4 -50 8 -50 4 0 4 -8 -2 -17 -5 -10 -5 -26 -1 -39 5 -12 7 -24 4
-27 -8 -8 -10 -88 -2 -93 4 -3 3 -16 -2 -29 -6 -17 -6 -25 1 -25 6 0 7 -5 3
-11 -4 -7 -6 -37 -5 -68 1 -31 1 -63 1 -71 0 -8 0 -25 0 -36 0 -23 -35 -40
-46 -23 -3 5 -13 5 -24 -1 -12 -6 -21 -7 -25 0 -4 6 -15 6 -30 0 -14 -5 -25
-6 -25 -2 0 8 -108 8 -116 -1 -3 -3 -17 -2 -30 3 -14 6 -24 6 -24 0 0 -5 -12
-5 -30 0 -17 5 -30 5 -30 0 0 -5 -6 -7 -12 -5 -23 9 -109 11 -114 3 -3 -4 -16
-3 -29 2 -15 6 -25 6 -25 0 0 -5 -12 -5 -30 0 -17 5 -30 5 -30 0 0 -5 -6 -7
-12 -5 -23 9 -109 11 -114 3 -3 -4 -16 -3 -29 2 -15 6 -25 6 -25 0 0 -5 -12
-5 -30 0 -17 5 -30 5 -30 0 0 -5 -6 -7 -12 -5 -23 9 -109 11 -114 3 -3 -4 -16
-3 -29 2 -15 6 -25 6 -25 0 0 -5 -12 -5 -30 0 -17 5 -30 5 -30 0 0 -5 -6 -7
-12 -5 -23 9 -109 11 -114 3 -3 -4 -16 -3 -29 2 -15 6 -25 6 -25 0 0 -5 -12
-5 -30 0 -17 5 -30 5 -30 0 0 -5 -6 -7 -12 -5 -23 9 -109 11 -114 3 -3 -4 -16
-3 -29 2 -15 6 -25 6 -25 0 0 -5 -12 -5 -30 0 -17 5 -30 5 -30 0 0 -5 -6 -7
-12 -5 -23 9 -109 11 -114 3 -3 -4 -16 -3 -29 2 -15 6 -25 6 -25 0 0 -5 -12
-5 -30 0 -17 5 -30 5 -30 0 0 -5 -6 -7 -12 -5 -23 9 -109 11 -114 3 -3 -4 -16
-3 -29 2 -15 6 -25 6 -25 0 0 -5 -12 -5 -30 0 -17 5 -30 5 -30 0 0 -5 -6 -7
-12 -5 -23 9 -109 11 -114 3 -3 -4 -16 -3 -29 2 -15 6 -25 6 -25 0 0 -5 -12
-5 -30 0 -17 5 -30 5 -30 0 0 -5 -6 -7 -12 -5 -23 9 -109 11 -114 3 -3 -4 -16
-3 -29 2 -15 6 -25 6 -25 0 0 -5 -12 -5 -30 0 -17 5 -30 5 -30 0 0 -5 -6 -7
-12 -5 -23 9 -109 11 -114 3 -3 -4 -16 -3 -29 2 -15 6 -25 6 -25 0 0 -5 -12
-5 -30 0 -17 5 -30 5 -30 0 0 -5 -6 -7 -12 -5 -23 9 -109 11 -114 3 -3 -4 -16
-3 -29 2 -15 6 -25 6 -25 0 0 -5 -12 -5 -30 0 -17 5 -30 5 -30 0 0 -5 -6 -7
-12 -5 -23 9 -109 11 -114 3 -3 -4 -16 -3 -29 2 -15 6 -25 6 -25 0 0 -5 -12
-5 -30 0 -17 5 -30 5 -30 0 0 -5 -6 -7 -12 -5 -23 9 -109 11 -114 3 -3 -4 -16
-3 -29 2 -15 6 -25 6 -25 0 0 -5 -12 -5 -30 0 -17 5 -30 5 -30 0 0 -5 -6 -7
-12 -5 -23 9 -109 11 -114 3 -3 -4 -16 -3 -29 2 -15 6 -25 6 -25 0 0 -5 -12
-5 -30 0 -17 5 -30 5 -30 0 0 -5 -6 -7 -12 -5 -23 9 -109 11 -114 3 -3 -4 -16
-3 -29 2 -15 6 -25 6 -25 0 0 -5 -12 -5 -30 0 -17 5 -30 5 -30 0 0 -5 -6 -7
-12 -5 -23 9 -109 11 -114 3 -3 -4 -16 -3 -29 2 -15 6 -25 6 -25 0 0 -5 -12
-5 -30 0 -17 5 -30 5 -30 0 0 -5 -6 -7 -12 -5 -23 9 -109 11 -114 3 -3 -4 -16
-3 -29 2 -15 6 -25 6 -25 0 0 -5 -12 -5 -30 0 -17 5 -30 5 -30 0 0 -5 -6 -7
-12 -5 -23 9 -109 11 -114 3 -3 -4 -16 -3 -29 2 -15 6 -25 6 -25 0 0 -5 -12
-5 -30 0 -17 5 -30 5 -30 0 0 -5 -6 -7 -12 -5 -23 9 -109 11 -114 3 -3 -4 -16
-3 -29 2 -15 6 -25 6 -25 0 0 -5 -12 -5 -30 0 -17 5 -30 5 -30 0 0 -5 -6 -7
-12 -5 -23 9 -109 11 -114 3 -3 -4 -16 -3 -29 2 -15 6 -25 6 -25 0 0 -5 -12
-5 -30 0 -17 5 -30 5 -30 0 0 -5 -6 -7 -12 -5 -23 9 -109 11 -114 3 -3 -4 -16
-3 -29 2 -15 6 -25 6 -25 0 0 -5 -12 -5 -30 0 -17 5 -30 5 -30 0 0 -5 -6 -7
-12 -5 -23 9 -109 11 -114 3 -3 -4 -16 -3 -29 2 -15 6 -25 6 -25 0 0 -5 -12
-5 -30 0 -17 5 -30 5 -30 0 0 -5 -6 -7 -12 -5 -23 9 -109 11 -114 3 -3 -4 -16
-3 -29 2 -15 6 -25 6 -25 0 0 -5 -12 -5 -30 0 -17 5 -30 5 -30 0 0 -5 -6 -7
-12 -5 -23 9 -109 11 -114 3 -3 -4 -16 -3 -29 2 -15 6 -25 6 -25 0 0 -5 -12
-5 -30 0 -17 5 -30 5 -30 0 0 -5 -6 -7 -12 -5 -23 9 -109 11 -114 3 -3 -4 -16
-3 -29 2 -15 6 -25 6 -25 0 0 -5 -12 -5 -30 0 -17 5 -30 5 -30 0 0 -5 -6 -7
-12 -5 -23 9 -109 11 -114 3 -3 -4 -16 -3 -29 2 -15 6 -25 6 -25 0 0 -5 -12
-5 -30 0 -17 5 -30 5 -30 0 0 -5 -6 -7 -13 -5 -22 9 -108 11 -113 3 -3 -4 -16
-3 -29 2 -15 6 -25 6 -25 0 0 -5 -12 -5 -30 0 -17 5 -30 5 -30 0 0 -5 -6 -7
-12 -5 -23 9 -109 11 -114 3 -3 -4 -16 -3 -29 2 -15 6 -25 6 -25 0 0 -5 -12
-5 -30 0 -17 5 -30 5 -30 0 0 -5 -6 -7 -12 -5 -23 9 -109 11 -114 3 -3 -4 -16
-3 -29 2 -15 6 -25 6 -25 0 0 -5 -12 -5 -30 0 -17 5 -30 5 -30 0 0 -5 -6 -7
-12 -5 -23 9 -109 11 -114 3 -3 -4 -16 -3 -29 2 -15 6 -25 6 -25 0 0 -5 -12
-5 -30 0 -17 5 -30 5 -30 0 0 -5 -6 -7 -12 -5 -23 9 -109 11 -114 3 -3 -4 -16
-3 -29 2 -15 6 -25 6 -25 0 0 -5 -12 -5 -30 0 -17 5 -30 5 -30 0 0 -5 -6 -7
-12 -5 -23 9 -109 11 -114 3 -3 -4 -16 -3 -29 2 -15 6 -25 6 -25 0 0 -5 -12
-5 -30 0 -17 5 -30 5 -30 0 0 -5 -6 -7 -12 -5 -23 9 -109 11 -114 3 -3 -4 -16
-3 -29 2 -15 6 -25 6 -25 0 0 -5 -12 -5 -30 0 -17 5 -30 5 -30 0 0 -5 -6 -7
-13 -5 -22 9 -108 11 -113 3 -3 -4 -16 -3 -29 2 -15 6 -25 6 -25 0 0 -5 -12
-5 -30 0 -16 5 -30 5 -30 0 0 -4 -15 -5 -32 -1 -72 15 -68 35 -68 -320 l0
-319 4518 2 4517 3 57 27 c72 34 117 78 154 153 l29 60 0 1990 c0 1095 -3
1997 -6 2005 -3 8 -9 26 -13 39 -33 98 -151 185 -268 197 -83 9 -168 10 -168
2 0 -4 -11 -3 -25 2 -15 6 -26 6 -30 0 -4 -7 -13 -6 -26 0 -13 8 -19 7 -19 0
0 -8 -6 -8 -20 0 -13 7 -20 7 -20 1 0 -7 -9 -7 -25 -1 -16 6 -25 6 -25 0 0 -6
-9 -6 -25 0 -15 6 -26 6 -30 0 -4 -7 -13 -6 -25 0 -13 7 -21 7 -25 0 -4 -7
-13 -7 -26 0 -13 8 -19 7 -19 0 0 -8 -6 -8 -20 0 -13 7 -20 7 -20 1 0 -7 -9
-7 -25 -1 -16 6 -25 6 -25 0 0 -6 -9 -6 -25 0 -15 6 -26 6 -30 0 -4 -7 -13 -6
-25 0 -13 7 -21 7 -25 0 -4 -6 -13 -7 -23 -1 -11 6 -24 6 -35 0 -9 -6 -17 -6
-17 -2 0 10 -63 8 -79 -2 -6 -3 -11 -1 -11 5 0 8 -6 8 -20 0 -14 -8 -20 -8
-20 0 0 8 -6 8 -20 0 -14 -8 -20 -8 -20 0 0 8 -6 8 -20 0 -14 -8 -20 -8 -20 0
0 8 -6 8 -20 0 -14 -8 -20 -8 -20 0 0 8 -6 8 -20 0 -14 -8 -20 -8 -20 0 0 8
-6 8 -20 0 -14 -8 -20 -8 -20 0 0 8 -6 8 -20 0 -14 -8 -20 -8 -20 0 0 8 -6 8
-20 0 -14 -8 -20 -8 -20 0 0 8 -6 8 -20 0 -14 -8 -20 -8 -20 0 0 8 -6 8 -20 0
-14 -8 -20 -8 -20 0 0 8 -6 8 -20 0 -14 -8 -20 -8 -20 0 0 8 -6 8 -20 0 -14
-8 -20 -8 -20 0 0 8 -6 8 -20 0 -14 -8 -20 -8 -20 0 0 8 -6 8 -20 0 -14 -8
-20 -8 -20 0 0 8 -6 8 -20 0 -14 -8 -20 -8 -20 0 0 8 -6 8 -20 0 -14 -8 -20
-8 -20 0 0 8 -6 8 -20 0 -14 -8 -20 -8 -20 0 0 8 -6 8 -20 0 -14 -8 -20 -8
-20 0 0 7 -6 8 -18 1 -13 -7 -22 -7 -29 0 -8 8 -13 7 -17 0 -5 -8 -13 -8 -27
-1 -12 7 -19 7 -19 1 0 -7 -8 -7 -22 -2 -13 5 -32 5 -43 1 -11 -4 -25 -3 -32
2 -7 5 -14 5 -18 -2 -4 -7 -12 -7 -26 0 -12 7 -19 7 -19 1 0 -7 -8 -7 -24 -1
-13 5 -26 7 -29 4z"/>
</g>
</svg>
